/* XPM */
static char * close_prelight_xpm[] = {
"36 36 3 1",
" 	c None",
".	c #444444",
"+	c #f0544c s active_color_1",
"....................................",
"....................................",
"....................................",
"....................................",
"....................................",
"....................................",
"....................................",
"....................................",
"....................................",
"....................................",
"....................................",
"....................................",
"....................................",
"....................................",
"..............++....++..............",
"..............+++..+++..............",
"...............++++++...............",
"................++++................",
"................++++................",
"...............++++++...............",
"..............+++..+++..............",
"..............++....++..............",
"....................................",
"....................................",
"....................................",
"....................................",
"....................................",
"....................................",
"....................................",
"....................................",
"....................................",
"....................................",
"....................................",
"....................................",
"....................................",
"...................................."};
