/* XPM */
static char * maximize_toggled_active_xpm[] = {
"36 36 3 1",
" 	c None",
".	c #2D2D2D",
"+	c #DCDCDC",
"....................................",
"....................................",
"....................................",
"....................................",
"....................................",
"....................................",
"....................................",
"....................................",
"....................................",
"....................................",
"....................................",
"....................................",
"....................................",
"....................................",
"..............++++++++..............",
"..............++++++++..............",
"..............++....++..............",
"..............++....++..............",
"..............++....++..............",
"..............++....++..............",
"..............++++++++..............",
"..............++++++++..............",
"....................................",
"....................................",
"....................................",
"....................................",
"....................................",
"....................................",
"....................................",
"....................................",
"....................................",
"....................................",
"....................................",
"....................................",
"....................................",
"...................................."};
