/* XPM */
static char * maximize_prelight_xpm[] = {
"36 36 3 1",
" 	c None",
".	c #444444",
"+	c #eeeeee",
"....................................",
"....................................",
"....................................",
"....................................",
"....................................",
"....................................",
"....................................",
"....................................",
"....................................",
"....................................",
"....................................",
"....................................",
"....................................",
"....................................",
"..............++++++++..............",
"..............++++++++..............",
"..............++....++..............",
"..............++....++..............",
"..............++....++..............",
"..............++....++..............",
"..............++++++++..............",
"..............++++++++..............",
"....................................",
"....................................",
"....................................",
"....................................",
"....................................",
"....................................",
"....................................",
"....................................",
"....................................",
"....................................",
"....................................",
"....................................",
"....................................",
"...................................."};
