/* XPM */
static char * stick_toggled_inactive_xpm[] = {
"36 36 3 1",
" 	c None",
".	c #2D2D2D",
"+	c #888888",
"....................................",
"....................................",
"....................................",
"....................................",
"....................................",
"....................................",
"....................................",
"....................................",
"....................................",
"....................................",
"....................................",
"....................................",
"....................................",
"....................................",
".................++.................",
"...............++++++...............",
"...............++++++...............",
"..............++++++++..............",
"..............++++++++..............",
"...............++++++...............",
"...............++++++...............",
".................++.................",
"....................................",
"....................................",
"....................................",
"....................................",
"....................................",
"....................................",
"....................................",
"....................................",
"....................................",
"....................................",
"....................................",
"....................................",
"....................................",
"...................................."};
