/* XPM */
static char * top_right_active_xpm[] = {
"2 39 4 1",
" 	c None",
".	c #484848",
"+	c #343434",
"@	c #444444",
". ",
"+.",
"@.",
"@.",
"@.",
"@.",
"@.",
"@.",
"@.",
"@.",
"@.",
"@.",
"@.",
"@.",
"@.",
"@.",
"@.",
"@.",
"@.",
"@.",
"@.",
"@.",
"@.",
"@.",
"@.",
"@.",
"@.",
"@.",
"@.",
"@.",
"@.",
"@.",
"@.",
"@.",
"@.",
"@.",
"@.",
"@.",
"@."};
